# xmcd
#
# Track frame offsets:
# 150
# 16105
# 26120
# 38707
# 52125
# 65582
# 77435
# 90430
# 103650
# 113752
# 123595
# 137317
# 149947
# 160305
# 171217
#
# Disc length: 2437 seconds
#
#
# Revision: 2
# Processed by: cddbd v1.5.1PL0 Copyright (c) Steve Scherf et al.
# Submitted via: FreeRIP 2.91 
#
DISCID=c909830f
DTITLE=Champion Jack Dupree - Me and my mule
DYEAR=1900
DGENRE=Jazz
TTITLE0=Come back baby champion
TTITLE1=Me and my mule
TTITLE2=Overhead blues
TTITLE3=Walking the blues
TTITLE4=Silent Partner
TTITLE5=Everybody blues
TTITLE6=Harelip blues
TTITLE7=All around the world
TTITLE8=Don't leave me my dear
TTITLE9=Are you ever coming back
TTITLE10=I'm ready
TTITLE11=All Aboard
TTITLE12=Sugar sweet
TTITLE13=I feel so good
TTITLE14=Don't start me to talkin'
EXTD=Collectors Edition with Muddy Waters
EXTT0=
EXTT1=
EXTT2=
EXTT3=
EXTT4=
EXTT5=
EXTT6=
EXTT7=
EXTT8=
EXTT9=
EXTT10=Muddy Waters
EXTT11=Muddy Waters
EXTT12=Muddy Waters
EXTT13=Muddy Waters
EXTT14=Muddy Waters
PLAYORDER=
